<svg width="216" height="59" viewBox="0 0 216 59" fill="none" xmlns="http://www.w3.org/2000/svg">
<path d="M55.9142 28.0587C77.8577 6.61428 90.9595 0.408177 108 0.408203V47.3498H0.613037V44.7777C14.4382 44.7777 40.2909 43.3268 55.9142 28.0587Z" fill="white"/>
<path d="M160.086 28.0587C138.142 6.61428 125.041 0.408177 108 0.408203V47.3498H215.387V44.7777C201.562 44.7777 175.709 43.3268 160.086 28.0587Z" fill="white"/>
<g clip-path="url(#clip0_111_1596)">
<path d="M107.04 58.4758L106.84 58.4458C106.79 58.4358 106.74 58.4258 106.68 58.4158C104.72 58.2858 103.03 57.8658 101.53 57.1258C99.4801 56.1258 97.9301 54.5558 96.9301 52.4658C96.2101 50.9458 95.8501 49.2858 95.8501 47.3858C95.8501 41.8658 95.8501 36.3358 95.8501 30.8058C95.8501 29.2258 96.0801 27.8458 96.5501 26.5758C97.5001 24.0258 99.1901 22.1358 101.57 20.9758C103.19 20.1858 105.03 19.7558 107.18 19.6758C107.48 19.6858 107.78 19.6758 108.07 19.6758C110.5 19.6758 112.55 20.0958 114.35 20.9558C117.12 22.2858 118.94 24.5258 119.76 27.6158C119.89 28.0958 119.96 28.5758 120.04 29.0458C120.07 29.2558 120.11 29.4658 120.14 29.6758L120.15 48.3758L120.1 48.7658L120 49.4258C119.62 51.8058 118.6 53.8158 116.97 55.3858C115.48 56.8158 113.63 57.7258 111.3 58.1558C110.78 58.2558 110.25 58.3158 109.72 58.3758L108.99 58.4658H107.04V58.4758ZM106.9 21.9258C106.62 21.9458 106.35 21.9558 106.08 22.0058C105.37 22.1158 104.65 22.2358 103.98 22.4358C102.08 22.9758 100.6 24.0258 99.5701 25.5458C98.5701 27.0358 98.0801 28.7358 98.0801 30.7458V36.2958C98.0801 39.9958 98.0801 43.6958 98.0901 47.3958C98.0901 48.1358 98.1501 48.7658 98.2601 49.3158C98.8701 52.3658 100.54 54.4258 103.22 55.4358C104.73 55.9958 106.3 56.2858 107.91 56.2858C109.28 56.2858 110.7 56.0758 112.14 55.6658C114.25 55.0558 115.84 53.7858 116.87 51.8658C117.58 50.5258 117.93 49.0558 117.93 47.3458C117.93 44.6058 117.93 33.6558 117.92 30.9158C117.92 30.4658 117.91 29.8658 117.83 29.2958C117.58 27.4458 116.9 25.9458 115.77 24.7058C114.6 23.4258 113.11 22.6158 111.21 22.2258C110.63 22.1058 110.05 22.0358 109.43 21.9558C109.32 21.9458 109.22 21.9258 109.11 21.9158V22.8858C109.11 23.7358 109.11 24.5858 109.1 25.4358C110.43 25.9558 111.16 26.9458 111.23 28.2558C111.29 29.4558 111.29 30.7258 111.23 32.0258C111.17 33.3458 110.42 34.3558 109.12 34.8558C109.11 36.0058 109.11 39.2058 109.11 39.2058C109.11 39.4158 109.11 39.5658 109.08 39.7058C108.98 40.2658 108.57 40.6158 108.01 40.6158C107.44 40.6058 107.03 40.2558 106.93 39.6958C106.91 39.5658 106.91 39.4358 106.91 39.3058V38.3258C106.91 37.1758 106.91 36.0258 106.92 34.8758C105.57 34.3358 104.86 33.3658 104.79 32.0358C104.74 31.1458 104.75 30.2458 104.76 29.3758V28.6858C104.75 27.0958 105.45 26.0358 106.89 25.4258C106.9 24.3758 106.9 23.3158 106.9 22.2158V21.9258ZM107.99 27.4458C107.4 27.4458 106.96 27.9158 106.96 28.5458C106.95 29.5958 106.95 30.6558 106.96 31.7058C106.97 32.3658 107.39 32.8258 108 32.8258C108.61 32.8258 109.03 32.3658 109.04 31.7258C109.05 31.3658 109.04 30.9958 109.04 30.6358V29.6358C109.04 29.2758 109.04 28.9258 109.04 28.5658C109.03 27.9058 108.6 27.4458 107.99 27.4458Z" fill="#D52B34"/>
<path d="M108.96 57.9757C108.32 57.9757 107.68 57.9757 107.04 57.9757C106.93 57.9557 106.83 57.9257 106.72 57.9257C104.99 57.8057 103.32 57.4457 101.75 56.6757C99.7801 55.7057 98.3301 54.2257 97.3801 52.2457C96.6501 50.7157 96.3501 49.0857 96.3501 47.3857C96.3501 41.8557 96.3501 36.3357 96.3501 30.8057C96.3501 29.4157 96.5301 28.0557 97.0201 26.7557C97.9101 24.3557 99.4801 22.5557 101.79 21.4357C103.5 20.6057 105.32 20.2557 107.2 20.1857C109.59 20.0957 111.93 20.3557 114.13 21.4057C116.84 22.7057 118.51 24.8557 119.27 27.7357C119.44 28.3957 119.52 29.0857 119.64 29.7557C119.64 35.9557 119.64 42.1657 119.64 48.3657C119.59 48.6957 119.54 49.0157 119.49 49.3457C119.14 51.5457 118.22 53.4657 116.61 55.0257C115.1 56.4857 113.24 57.2857 111.2 57.6657C110.47 57.8057 109.71 57.8757 108.96 57.9757ZM107.4 21.3857C106.9 21.4257 106.44 21.4257 106 21.5057C105.27 21.6257 104.54 21.7457 103.84 21.9557C101.9 22.5057 100.3 23.5757 99.1601 25.2657C98.0401 26.9157 97.5801 28.7657 97.5801 30.7457C97.5801 36.2957 97.5701 41.8457 97.5901 47.3957C97.5901 48.0657 97.6401 48.7557 97.7701 49.4157C98.3801 52.5057 100.06 54.7857 103.05 55.9057C106.08 57.0457 109.19 57.0357 112.28 56.1457C114.51 55.5057 116.21 54.1657 117.31 52.1057C118.1 50.6257 118.43 49.0257 118.43 47.3457C118.42 41.8657 118.43 36.3957 118.42 30.9157C118.42 30.3557 118.4 29.7857 118.32 29.2257C118.07 27.3957 117.39 25.7457 116.13 24.3657C114.82 22.9257 113.17 22.1157 111.3 21.7257C110.43 21.5457 109.54 21.4657 108.62 21.3357C108.61 21.5557 108.6 21.6757 108.6 21.7957C108.6 23.0057 108.61 24.2057 108.59 25.4157C108.59 25.6657 108.65 25.7857 108.91 25.8857C110 26.2957 110.66 27.0857 110.71 28.2557C110.77 29.4957 110.77 30.7457 110.71 31.9857C110.66 33.1557 110 33.9557 108.92 34.3657C108.65 34.4657 108.58 34.5957 108.58 34.8657C108.59 36.3057 108.59 37.7457 108.59 39.1857C108.59 39.3257 108.6 39.4557 108.57 39.5857C108.51 39.9057 108.3 40.0857 107.98 40.0857C107.66 40.0857 107.45 39.8957 107.4 39.5757C107.38 39.4557 107.38 39.3257 107.38 39.2057C107.38 37.7457 107.37 36.2757 107.39 34.8157C107.39 34.5657 107.32 34.4657 107.08 34.3757C105.98 33.9557 105.32 33.1557 105.26 31.9757C105.2 30.8757 105.23 29.7657 105.23 28.6557C105.24 27.2457 105.85 26.3657 107.17 25.8357C107.26 25.7957 107.37 25.6757 107.37 25.5857C107.4 24.2157 107.4 22.8457 107.4 21.3857ZM109.55 30.1457C109.55 29.6157 109.56 29.0857 109.55 28.5557C109.54 27.6157 108.88 26.9357 108 26.9457C107.13 26.9457 106.48 27.6257 106.47 28.5457C106.46 29.6057 106.46 30.6557 106.47 31.7157C106.48 32.6557 107.14 33.3357 108.02 33.3257C108.89 33.3157 109.54 32.6557 109.55 31.7257C109.55 31.2057 109.55 30.6757 109.55 30.1457Z" fill="#D52B34"/>
</g>
<defs>
<clipPath id="clip0_111_1596">
<rect width="24.3" height="38.8" fill="white" transform="translate(95.8501 19.6758)"/>
</clipPath>
</defs>
</svg>
