<svg width="212" height="41" viewBox="0 0 212 41" fill="none" xmlns="http://www.w3.org/2000/svg">
<g clip-path="url(#clip0_133_14210)">
<path d="M21.2069 18.3176C21.505 18.4604 21.8032 18.5975 22.1013 18.7403C24.2397 19.7686 26.3782 20.8026 28.5167 21.8308C28.9638 22.0479 29.4168 22.2593 29.8697 22.4707C30.0359 22.5506 30.1277 22.6535 30.185 22.842C30.2882 23.1847 30.4258 23.5275 30.6093 23.836C30.8902 24.3044 31.2628 24.3901 31.7559 24.1673C31.8362 24.1273 31.9623 24.1216 32.0425 24.1559C32.3751 24.2987 32.7076 24.2644 33.0401 24.173C33.1204 24.1502 33.235 24.1388 33.3038 24.1787C35.6831 25.5098 38.2057 26.5381 40.6766 27.6806C40.9461 27.8063 41.2557 27.8805 41.5481 27.9091C42.3163 27.9777 42.8266 27.6406 43.1419 26.9037C43.4458 26.1896 43.2279 25.2413 42.6546 24.8014C42.3278 24.5501 42.087 24.6072 41.9207 24.9785C41.8233 25.1956 41.7602 25.4298 41.6685 25.6583C41.5309 25.9954 41.3302 26.121 40.992 26.0011C40.4416 25.8126 39.9027 25.5898 39.3695 25.3613C37.8387 24.6929 36.3137 24.0131 34.7773 23.3447C34.5365 23.2419 34.4677 23.1162 34.4677 22.8534C34.4791 20.3913 34.4734 17.9348 34.4791 15.4727C34.4791 14.3244 34.4734 13.1762 34.5021 12.0336C34.5078 11.788 34.6225 11.5424 34.7257 11.3081C35.964 8.52608 37.2138 5.74973 38.4579 2.96767C38.521 2.81914 38.5955 2.74487 38.7732 2.74487C40.8716 2.75059 42.9699 2.75059 45.0682 2.75059C45.137 2.75059 45.2001 2.76201 45.2976 2.76772C45.2976 2.89911 45.2976 3.01908 45.2976 3.13905C45.2976 7.03508 45.2976 10.9254 45.2976 14.8214C45.2976 15.1242 45.2976 15.1185 45.6014 15.1185C50.3427 15.1185 55.084 15.1128 59.8253 15.1128C60.1235 15.1128 60.1235 15.1128 60.1235 14.8214C60.1235 10.914 60.1235 7.0008 60.1235 3.09334C60.1235 2.75059 60.1235 2.75059 60.4674 2.75059C63.85 2.75059 67.2383 2.75059 70.6208 2.75059C70.9304 2.75059 70.9304 2.75059 70.9304 3.06478C70.9304 15.2042 70.9304 27.3493 70.9304 39.4887C70.9304 39.8314 70.9304 39.8314 70.5979 39.8314C67.2154 39.8314 63.8271 39.8314 60.4445 39.8314C60.1235 39.8314 60.1235 39.8314 60.1235 39.5058C60.1235 34.5929 60.1235 29.68 60.1292 24.7672C60.1292 24.5615 60.0719 24.4929 59.8597 24.4929C55.0955 24.4987 50.3313 24.4987 45.567 24.4929C45.3262 24.4929 45.2976 24.6072 45.2976 24.8014C45.3033 27.7949 45.2976 30.794 45.2976 33.7874C45.2976 35.7069 45.2918 37.6206 45.3033 39.5401C45.3033 39.7629 45.2517 39.8371 45.0166 39.8371C41.6112 39.8314 38.1999 39.8314 34.7944 39.8314C34.5021 39.8314 34.5021 39.8314 34.5021 39.5229C34.5021 36.2839 34.5021 33.0505 34.5021 29.8114C34.5021 29.5658 34.5021 29.3144 34.5021 29.0688C34.4791 29.0631 34.4562 29.0631 34.439 29.0574C34.3358 29.383 34.2383 29.7086 34.1294 30.0342C33.1777 32.822 31.4291 35.0157 29.0441 36.718C27.1522 38.0719 25.0538 38.9859 22.8007 39.5515C21.7344 39.82 20.6393 39.9914 19.5558 40.2027C19.5099 40.2142 19.4583 40.2027 19.378 40.2027C19.6074 40.0714 19.808 39.9628 19.9972 39.8314C20.2437 39.6658 20.2667 39.4487 20.1061 39.2087C20.0431 39.1116 20.003 39.0031 19.9686 38.8888C19.8883 38.5975 19.6704 38.4432 19.4239 38.3176C19.12 38.1576 18.8334 37.9805 18.6385 37.6835C18.5983 37.6206 18.5697 37.5578 18.5353 37.4949C18.8678 37.3236 18.8735 37.2664 18.6098 37.0094C18.5639 36.9637 18.5009 36.8837 18.5181 36.8494C18.6442 36.5638 18.4779 36.4667 18.2257 36.4038C18.3346 36.0896 18.283 35.8154 18.1053 35.5584C18.0709 35.5069 18.0823 35.4155 18.0995 35.347C18.3117 34.4729 18.6557 33.6446 19.057 32.8391C19.2404 32.4735 19.4468 32.125 19.6303 31.7594C19.7163 31.5938 19.8367 31.5252 20.0144 31.4852C20.8629 31.291 21.6713 30.9882 22.3306 30.3998C22.9785 29.8171 23.3454 29.0973 23.3339 28.2062C23.3282 27.7263 23.1218 27.3264 22.795 26.9951C22.5714 26.7666 22.2905 26.5838 22.0497 26.3724C21.9752 26.3039 21.9121 26.201 21.8834 26.1039C21.7114 25.5098 21.5624 24.91 21.3789 24.3216C21.098 23.3504 20.754 22.4135 20.2896 21.5224C20.2437 21.431 20.2724 21.3053 20.2724 21.191C20.2724 20.9454 20.2667 20.6997 20.2839 20.4541C20.2953 20.3227 20.324 20.1799 20.3871 20.0599C20.5132 19.8314 20.6795 19.6201 20.8056 19.3915C20.8859 19.2487 20.9317 19.1002 21.1381 19.1059C21.1668 19.1059 21.2298 18.9859 21.2241 18.9288C21.2126 18.7346 21.1725 18.5461 21.1438 18.3576C21.1668 18.3461 21.1897 18.329 21.2069 18.3176Z" fill="#D52B34"/>
<path d="M27.0718 7.17795C27.4788 7.19509 27.8572 7.22936 28.2299 7.22365C28.4019 7.22365 28.5739 7.17224 28.7344 7.1094C28.9236 7.04084 29.0382 6.89803 29.0497 6.68095C29.0554 6.60097 29.1013 6.52671 29.1128 6.45244C29.13 6.31534 29.1414 6.17252 29.1586 5.984C29.365 5.92116 29.3765 5.68695 29.3994 5.45844C29.4224 5.23565 29.4969 5.07569 29.7778 5.0814C29.9613 5.0814 30.0014 4.96144 29.9211 4.77292C29.795 4.493 29.646 4.21879 29.5485 3.92745C29.4969 3.77321 29.4912 3.56755 29.5485 3.42473C29.8523 2.71637 29.7262 2.06512 29.3306 1.44816C29.1472 1.15681 28.935 0.882603 28.7 0.55127C31.7328 0.785488 34.5822 1.49386 37.3513 2.66495C37.2022 3.002 37.0646 3.31048 36.9213 3.61896C36.1531 5.29277 35.3848 6.96087 34.6166 8.63468C34.2611 9.40017 33.9057 10.1657 33.5617 10.9369C33.4872 11.1083 33.3954 11.1254 33.2292 11.0511C31.6354 10.3428 29.9785 9.82862 28.2643 9.503C28.0636 9.46301 27.8629 9.42873 27.6623 9.40588C27.5075 9.38875 27.4444 9.32591 27.4158 9.17166C27.3068 8.50328 27.1864 7.84633 27.0718 7.17795Z" fill="#D52B34"/>
<path d="M9.08695 36.7752C9.7176 36.7637 9.96985 36.5352 9.93545 35.844C9.91826 35.467 10.0387 35.2213 10.2909 34.9871C10.4686 34.8271 10.6292 34.6443 10.8012 34.473C10.8298 34.4444 10.8642 34.3987 10.8872 34.4044C11.1337 34.4672 11.1566 34.2445 11.2541 34.1245C11.4261 33.9131 11.5809 33.6903 11.7701 33.4961C12.395 32.8506 13.0371 32.2165 13.6735 31.5881C13.7365 31.5252 13.8569 31.4738 13.9487 31.4852C14.5678 31.5424 15.1813 31.6166 15.8005 31.6795C15.9438 31.6966 15.9553 31.7709 15.9266 31.8851C15.8406 32.245 15.7317 32.5992 15.6629 32.9591C15.5253 33.6789 15.4106 34.3987 15.2959 35.1185C15.2673 35.3127 15.2271 35.4327 15.0035 35.5012C14.8545 35.5469 14.694 35.7126 14.6424 35.8668C14.4818 36.3353 14.3442 36.8151 14.2468 37.295C14.1665 37.672 14.1378 38.0662 14.1264 38.4547C14.1149 38.8774 14.3557 39.1231 14.7742 39.1859C15.2501 39.2545 15.6514 39.4772 15.9323 39.8714C16.11 40.1228 16.3164 40.3113 16.6031 40.4427C16.4368 40.4541 16.2706 40.477 16.1043 40.4827C14.6882 40.5284 13.2721 40.4941 11.8675 40.3284C10.87 40.2142 9.87812 40.0428 8.88056 39.9C8.72576 39.8771 8.6627 39.8371 8.72576 39.6486C8.85189 39.2602 8.77736 38.8717 8.6627 38.4947C8.53084 38.0377 8.5595 37.6263 8.88629 37.2436C8.98375 37.1236 9.01242 36.9465 9.08695 36.7752Z" fill="#D52B34"/>
<path d="M6.91407 39.7457C6.52422 39.8028 6.18023 39.6886 5.95664 39.4029C5.74451 39.1344 5.61838 38.7974 5.44065 38.4661C5.42919 38.4832 5.39479 38.5403 5.35466 38.586C4.84441 39.2315 3.96724 39.3458 3.36526 38.8488C2.75181 38.3461 2.68302 37.3864 3.2162 36.7865C3.30793 36.6837 3.41112 36.598 3.52005 36.518C3.74938 36.3467 3.74938 36.2553 3.52005 36.0953C2.66582 35.5012 2.61995 34.2844 3.44552 33.656C3.61752 33.5246 3.84684 33.4446 4.05897 33.3875C4.2195 33.3418 4.26536 33.2961 4.24243 33.1304C4.12203 32.1993 4.40869 31.4338 5.22853 30.9139C5.35466 30.8339 5.49799 30.7711 5.64131 30.7254C5.79611 30.6797 5.84197 30.6054 5.79611 30.4455C5.59545 29.76 5.97384 29.0744 6.65035 28.8745C7.28099 28.6917 7.91164 29.023 8.10083 29.6514C8.1639 29.8514 8.20976 29.9028 8.42189 29.7942C8.978 29.4972 9.69464 29.5772 10.1189 29.977C9.9985 30.1084 9.88384 30.2398 9.76344 30.3712C9.10413 31.0967 8.54228 31.8908 8.07217 32.7477C7.96324 32.9419 7.83711 33.0105 7.61351 33.0276C6.91981 33.0733 6.22036 33.1076 5.54385 33.2333C4.94761 33.3475 4.79281 33.6846 4.91321 34.273C4.93614 34.3758 4.95907 34.4786 4.97627 34.5814C5.0336 35.0385 5.19413 35.4155 5.58398 35.7126C6.07703 36.0896 6.04837 36.6609 5.97384 37.2093C5.93944 37.4549 5.87064 37.6948 5.80758 37.9348C5.65278 38.586 5.96237 39.203 6.63888 39.5857C6.72488 39.6371 6.81661 39.6886 6.91407 39.7457Z" fill="#D52B34"/>
<path d="M27.6108 20.0315C25.5985 19.106 23.5862 18.1863 21.5452 17.2437C21.677 17.0495 21.7745 16.8781 21.9006 16.7296C22.2389 16.3297 22.5886 15.9469 22.9269 15.5528C23.03 15.4328 23.1447 15.4099 23.288 15.4614C23.6091 15.5756 23.9359 15.6727 24.2512 15.7927C24.3315 15.8213 24.4232 15.9012 24.4633 15.9755C25.2144 17.4836 26.3266 18.7062 27.542 19.8544C27.5764 19.8887 27.6108 19.9287 27.6452 19.9629C27.6338 19.9858 27.6223 20.0086 27.6108 20.0315Z" fill="#D52B34"/>
<path d="M28.9065 17.5579C31.3316 18.7975 33.4184 20.3799 34.4045 23.0534C34.3931 23.0763 34.3759 23.0991 34.3644 23.1163C34.0892 22.9506 33.8083 22.7907 33.5446 22.6136C33.3554 22.4879 33.2006 22.3165 33.0057 22.2022C31.7386 21.471 30.7984 20.4085 29.9499 19.2488C29.6059 18.7804 29.302 18.2891 28.9753 17.8035C28.9294 17.735 28.9007 17.6607 28.8606 17.5921C28.8721 17.5807 28.8893 17.5693 28.9065 17.5579Z" fill="#D52B34"/>
<path d="M8.03784 14.0847C8.03784 14.913 7.42439 15.5528 6.61602 15.5528C5.80191 15.5585 5.177 14.913 5.177 14.0732C5.177 13.2392 5.81338 12.5765 6.60455 12.5708C7.44159 12.5708 8.1009 13.3306 8.03784 14.0847Z" fill="#D52B34"/>
<path d="M4.5349 14.1645C4.5349 14.7529 4.05331 15.2499 3.48 15.2499C2.90095 15.2499 2.41364 14.7529 2.43657 14.1474C2.4595 13.5418 2.91242 13.062 3.49147 13.0677C4.05905 13.0791 4.5349 13.5761 4.5349 14.1645Z" fill="#D52B34"/>
<path d="M10.7268 23.0991C10.7211 23.7047 10.2681 24.1845 9.6891 24.1845C9.10432 24.1845 8.62274 23.6875 8.62847 23.082C8.6342 22.4879 9.10432 22.008 9.6891 22.0137C10.2853 22.0194 10.7325 22.4822 10.7268 23.0991Z" fill="#D52B34"/>
<path d="M6.6676 21.3569C6.11149 21.3911 5.60697 20.8998 5.6299 20.2372C5.65284 19.6488 6.13442 19.186 6.702 19.1975C7.28105 19.2146 7.7569 19.7173 7.73397 20.3C7.71103 20.9227 7.25811 21.374 6.6676 21.3569Z" fill="#D52B34"/>
<path d="M7.71107 17.1122C7.70533 17.7063 7.25242 18.1691 6.67337 18.1691C6.07139 18.1691 5.6242 17.6949 5.62994 17.0722C5.63567 16.4667 6.11152 15.9868 6.6791 15.9982C7.28108 16.0097 7.7168 16.4838 7.71107 17.1122Z" fill="#D52B34"/>
<path d="M0 32.6278C0 32.0052 0.464384 31.531 1.07783 31.531C1.63394 31.531 2.08686 31.9937 2.08686 32.5707C2.08686 33.1762 1.58808 33.6961 1.01477 33.6904C0.441452 33.6847 0 33.222 0 32.6278Z" fill="#D52B34"/>
<path d="M7.7627 8.02334C7.7627 8.6346 7.29831 9.10875 6.69633 9.10304C6.13449 9.09732 5.6701 8.61175 5.67583 8.02334C5.68157 7.42923 6.13448 6.96079 6.7078 6.95508C7.29831 6.96079 7.7627 7.42352 7.7627 8.02334Z" fill="#D52B34"/>
<path d="M8.67993 5.01285C8.67993 4.40159 9.13858 3.92744 9.72336 3.93316C10.2967 3.93316 10.7725 4.43587 10.7668 5.02427C10.7611 5.62981 10.3024 6.08683 9.70616 6.08111C9.11565 6.0754 8.67993 5.61839 8.67993 5.01285Z" fill="#D52B34"/>
<path d="M7.71107 10.8056C7.71107 11.4225 7.26961 11.8796 6.66763 11.8796C6.08285 11.8796 5.6242 11.3997 5.62994 10.7941C5.63567 10.1943 6.10579 9.72017 6.69057 9.72588C7.26961 9.73731 7.71107 10.2057 7.71107 10.8056Z" fill="#D52B34"/>
<path d="M4.48905 30.5255C4.48905 31.1368 4.00747 31.6052 3.38829 31.5995C2.83217 31.5938 2.38499 31.1197 2.39646 30.5484C2.40792 29.9486 2.89524 29.4573 3.47429 29.4573C4.05907 29.4573 4.49478 29.9143 4.48905 30.5255Z" fill="#D52B34"/>
<path d="M2.08695 35.4955C2.08695 35.9639 1.73723 36.3181 1.27285 36.3181C0.865796 36.3181 0.539007 35.9811 0.533274 35.5583C0.527541 35.0956 0.871529 34.7471 1.32445 34.7471C1.75443 34.7357 2.08122 35.0613 2.08695 35.4955Z" fill="#D52B34"/>
<path d="M13.662 2.00237C13.662 2.3337 13.4155 2.58506 13.1002 2.58506C12.7791 2.58506 12.5269 2.31656 12.5269 1.97952C12.5326 1.65961 12.7906 1.39111 13.0944 1.39111C13.404 1.39111 13.662 1.67103 13.662 2.00237Z" fill="#D52B34"/>
<path d="M7.76272 5.01296C7.76272 5.33858 7.52193 5.58994 7.20087 5.59565C6.86835 5.60137 6.62183 5.35001 6.62183 5.01296C6.62183 4.68734 6.86835 4.43027 7.18367 4.43027C7.5162 4.42456 7.76272 4.67592 7.76272 5.01296Z" fill="#D52B34"/>
<path d="M1.04925 29.4801C1.3703 29.4858 1.59389 29.72 1.58816 30.0513C1.58243 30.3827 1.32444 30.6397 0.997647 30.6397C0.682324 30.6397 0.447266 30.3998 0.447266 30.0742C0.447266 29.7143 0.688057 29.4744 1.04925 29.4801Z" fill="#D52B34"/>
<path d="M4.75269 8.04636C4.75269 8.37198 4.4947 8.62905 4.17938 8.61763C3.85832 8.61191 3.6118 8.34913 3.61753 8.02922C3.62326 7.69218 3.86405 7.44653 4.18511 7.44653C4.51763 7.44653 4.75842 7.69789 4.75269 8.04636Z" fill="#D52B34"/>
<path d="M4.14507 11.3824C3.82974 11.3824 3.57175 11.1254 3.57749 10.8054C3.57749 10.4684 3.82401 10.217 4.16227 10.217C4.47186 10.217 4.71838 10.4741 4.71838 10.8112C4.72411 11.1254 4.46612 11.3824 4.14507 11.3824Z" fill="#D52B34"/>
<path d="M4.12787 17.6721C3.81828 17.6664 3.57176 17.3979 3.57749 17.078C3.58322 16.7523 3.83548 16.501 4.15654 16.501C4.46613 16.501 4.71838 16.7638 4.71838 17.0894C4.71838 17.4207 4.46039 17.6778 4.12787 17.6721Z" fill="#D52B34"/>
<path d="M0.395508 14.1588C0.395508 13.8274 0.630566 13.5818 0.957355 13.5818C1.27268 13.5818 1.53067 13.8389 1.53067 14.1588C1.53067 14.5015 1.28414 14.7529 0.945889 14.7472C0.6191 14.7415 0.395508 14.5015 0.395508 14.1588Z" fill="#D52B34"/>
<path d="M5.01648 29.4058C4.73556 29.4001 4.51196 29.1773 4.51196 28.8973C4.51196 28.6117 4.75849 28.3604 5.04514 28.3604C5.32607 28.3604 5.54393 28.5774 5.53819 28.8688C5.53819 29.1773 5.30887 29.4115 5.01648 29.4058Z" fill="#D52B34"/>
<path d="M4.88468 22.4937C4.87894 22.6708 4.70122 22.8364 4.52349 22.8307C4.33429 22.825 4.19097 22.6651 4.1967 22.4708C4.20243 22.2823 4.36296 22.1224 4.54642 22.1281C4.71268 22.1338 4.89041 22.3223 4.88468 22.4937Z" fill="#D52B34"/>
<path d="M0.946042 27.9321C0.946042 28.1264 0.79698 28.2977 0.619253 28.2977C0.447259 28.2977 0.269531 28.1206 0.269531 27.9493C0.269531 27.7607 0.418593 27.6008 0.602053 27.5951C0.791247 27.5837 0.946042 27.7379 0.946042 27.9321Z" fill="#D52B34"/>
<path d="M4.88452 5.77841C4.86732 5.96693 4.70106 6.09832 4.50613 6.07547C4.31694 6.05262 4.20227 5.89838 4.21947 5.68701C4.2424 5.49849 4.39147 5.37853 4.58066 5.39567C4.76412 5.4128 4.90172 5.5899 4.88452 5.77841Z" fill="#D52B34"/>
<path d="M1.21533 19.1859C1.21533 18.9802 1.35293 18.8431 1.54785 18.8488C1.73131 18.8545 1.87464 18.9973 1.87464 19.1801C1.87464 19.3744 1.72558 19.5343 1.54212 19.5343C1.35293 19.54 1.21533 19.3915 1.21533 19.1859Z" fill="#D52B34"/>
<path d="M9.71777 2.39639C9.91843 2.39639 10.0446 2.53349 10.0446 2.74486C10.0446 2.95052 9.91843 3.07048 9.7235 3.07619C9.52857 3.07619 9.37378 2.92767 9.37378 2.73915C9.37378 2.55063 9.52857 2.39068 9.71777 2.39639Z" fill="#D52B34"/>
<path d="M1.72572 8.64618C1.72572 8.84612 1.58239 8.98894 1.38173 8.98322C1.19827 8.98322 1.07214 8.84612 1.06641 8.64618C1.06641 8.43481 1.19254 8.29199 1.38746 8.29199C1.58239 8.29199 1.72572 8.44623 1.72572 8.64618Z" fill="#D52B34"/>
<path d="M19.9571 1.63667C20.2323 0.962579 20.6566 0.511279 21.4248 0.511279C22.1873 0.511279 22.6116 0.945441 22.8696 1.64238C23.0243 1.38532 23.1677 1.14538 23.3225 0.882602C23.2135 1.4253 23.1103 1.92802 23.0071 2.45358C22.967 2.41931 22.9326 2.39074 22.8696 2.33933C22.6861 2.92773 22.302 3.3219 21.6312 3.49328C21.7803 3.55041 21.8548 3.58469 21.9236 3.61325C22.2848 3.75607 22.5485 4.00171 22.7148 4.35589C22.8008 4.53299 22.8925 4.69865 22.9842 4.87003C23.0702 5.02428 23.0129 5.13853 22.8638 5.19565C22.623 5.29277 22.3822 5.37846 22.1357 5.44701C21.0407 5.75549 19.9629 6.10397 18.9481 6.61811C18.1856 7.00085 17.6639 7.57212 17.5091 8.4233C17.3199 9.49157 16.7638 10.3542 16.0529 11.1368C15.4509 11.8052 14.8374 12.4621 14.2469 13.142C14.0577 13.359 13.8857 13.6104 13.7653 13.8789C13.6908 14.0503 13.6851 14.2731 13.7137 14.4616C13.7481 14.7072 13.7424 14.7529 13.4959 14.8043C13.4156 14.8215 13.3296 14.8443 13.2493 14.8272C12.8308 14.7529 12.5671 14.9814 12.3722 15.2956C12.2575 15.4841 12.1486 15.4784 11.9881 15.387C11.667 15.1985 11.4205 14.9414 11.3001 14.5758C11.2771 14.5073 11.2485 14.4444 11.1912 14.3702C10.9962 14.9586 10.6293 15.3642 10.0273 15.5698C10.6178 15.7526 11.002 16.1182 11.2198 16.7295C11.409 16.2554 11.6326 15.9012 12.097 15.7241C12.0053 16.0783 11.9021 16.3982 11.839 16.7238C11.6498 17.7349 11.7358 18.7175 12.1658 19.6658C12.2288 19.8029 12.2231 19.9686 12.2231 20.1228C12.2518 21.311 12.4811 22.4422 13.0888 23.4819C13.2207 23.7047 13.3239 23.9389 13.45 24.1617C13.5245 24.2988 13.4787 24.3616 13.3525 24.4244C12.4467 24.8757 11.3975 24.3216 11.2714 23.3219C11.1797 22.6078 11.4835 22.0366 12.1371 21.7109C12.183 21.6881 12.2231 21.6595 12.3206 21.6024C11.753 21.391 11.3918 21.0254 11.2427 20.4199C11.1854 20.4999 11.1453 20.5398 11.1281 20.5913C10.8242 21.2996 10.2681 21.6424 9.55721 21.5567C8.96096 21.4824 8.42778 20.9454 8.34751 20.3399C8.25005 19.5801 8.58257 18.9803 9.25908 18.6889C9.32215 18.6604 9.37948 18.6375 9.49987 18.5861C8.7603 18.3176 8.29592 17.8663 8.30738 17.0837C8.31885 16.3011 8.75457 15.844 9.53427 15.5927C8.77177 15.347 8.31885 14.8843 8.30738 14.1074C8.29018 13.3305 8.72017 12.8506 9.51134 12.565C8.73163 12.2908 8.30738 11.8109 8.30738 11.0397C8.31311 10.2571 8.7603 9.79434 9.52854 9.53727C8.65137 9.22879 8.24432 8.65181 8.35898 7.7892C8.43924 7.19508 8.7947 6.77806 9.37375 6.60097C9.76933 6.481 10.1649 6.53242 10.5318 6.76092C10.8873 6.978 11.0478 7.33219 11.2313 7.74921C11.4262 7.09797 11.7989 6.69808 12.4123 6.5267C11.9479 6.35532 11.5753 6.09254 11.3803 5.64695C11.2427 5.33276 11.2198 5.00142 11.2886 4.67009C11.409 4.07026 11.9078 3.61325 12.5212 3.52756C13.192 3.43616 13.6851 3.7732 14.1495 4.69294C14.3616 4.0874 14.7113 3.66466 15.3878 3.52756C15.1986 3.43616 15.0496 3.37332 14.912 3.29334C14.2125 2.90488 13.9603 1.93944 14.373 1.23679C14.7858 0.528417 15.6458 0.288486 16.3338 0.694084C16.6262 0.865464 16.8211 1.11682 16.953 1.4253C16.9816 1.49957 17.016 1.57955 17.0676 1.70522C17.3141 0.996855 17.7269 0.522704 18.4952 0.516992C19.2577 0.505566 19.6934 0.945441 19.9571 1.63667ZM12.418 12.5536C11.7759 12.3879 11.4205 11.9594 11.1969 11.3653C10.9905 11.9594 10.6236 12.3536 10.0388 12.525C10.2968 12.7021 10.5605 12.8278 10.7497 13.0277C10.9389 13.2219 11.0593 13.4904 11.2313 13.7646C11.3918 13.142 11.7931 12.7535 12.418 12.5536ZM18.7818 3.51042C19.4067 3.71036 19.7737 4.12168 19.9514 4.74436C20.152 4.12739 20.5075 3.67609 21.1668 3.50471C20.5591 3.31619 20.1635 2.92773 19.9514 2.3279C19.7622 2.94487 19.3609 3.30477 18.7818 3.51042ZM18.2142 6.54955C17.9563 6.38389 17.6811 6.25821 17.4861 6.05255C17.2912 5.85261 17.1823 5.57269 17.0218 5.30991C16.8555 5.90402 16.4828 6.32105 15.8637 6.52099C16.4943 6.70951 16.844 7.1551 17.0619 7.73779C17.2224 7.10368 17.6237 6.72093 18.2142 6.54955ZM12.3894 9.53727C11.7874 9.34304 11.4205 8.95458 11.2255 8.36618C11.0077 8.93744 10.6522 9.35447 10.0388 9.53727C10.6293 9.75435 11.002 10.1542 11.2026 10.7369C11.4033 10.1314 11.7817 9.7315 12.3894 9.53727ZM15.2961 6.49243C14.7113 6.33819 14.3444 5.94401 14.138 5.36132C13.9259 5.95544 13.5532 6.33247 12.9512 6.5267C13.5704 6.73807 13.9431 7.14938 14.0921 7.76635C14.2469 7.49785 14.3558 7.21222 14.5508 7.01228C14.7514 6.7952 15.0324 6.66381 15.2961 6.49243ZM18.2601 3.51042C17.6639 3.31048 17.2568 2.93344 17.0619 2.32219C16.867 2.93344 16.4656 3.31619 15.9038 3.48757C16.156 3.65895 16.4255 3.78463 16.6147 3.98457C16.8096 4.19023 16.9186 4.46444 17.0791 4.72722C17.2281 4.09883 17.6065 3.6818 18.2601 3.51042Z" fill="#D52B34"/>
<path d="M84.4778 6.39556C84.151 6.66406 83.9848 7.01824 83.9848 7.45812C83.9848 7.89799 84.1854 8.25218 84.581 8.50925C84.9823 8.77203 85.8996 9.0748 87.3501 9.42898C88.7949 9.78317 89.9186 10.3144 90.7155 11.0228C91.5124 11.7312 91.9137 12.7652 91.9137 14.1248C91.9137 15.4844 91.4035 16.5869 90.3772 17.4324C89.351 18.2779 88.0037 18.7006 86.3354 18.7006C83.9217 18.7006 81.7546 17.8094 79.8225 16.0328L81.8463 13.5592C83.486 14.9931 85.0053 15.7072 86.3984 15.7072C87.0233 15.7072 87.5107 15.5758 87.8718 15.3073C88.2273 15.0388 88.405 14.6789 88.405 14.2219C88.405 13.7649 88.2158 13.405 87.8374 13.1365C87.4591 12.868 86.7137 12.5995 85.5958 12.3253C83.8242 11.9083 82.5286 11.3599 81.7087 10.6858C80.8889 10.0117 80.4761 8.95483 80.4761 7.51524C80.4761 6.07565 80.9978 4.9674 82.0355 4.18477C83.0732 3.40213 84.3689 3.01367 85.9226 3.01367C86.9373 3.01367 87.9578 3.18505 88.9726 3.53352C89.9874 3.882 90.876 4.37328 91.6328 5.00739L89.9128 7.48097C88.5885 6.48125 87.224 5.98425 85.8194 5.98425C85.2518 5.99568 84.8046 6.12707 84.4778 6.39556Z" fill="#D52B34"/>
<path d="M94.8147 3.36792H98.2144V18.5407H94.8147V3.36792Z" fill="#D52B34"/>
<path d="M112.616 3.36792H116.016V18.5407H112.616L105.364 9.03487V18.5407H101.964V3.36792H105.146L112.616 13.1366V3.36792Z" fill="#D52B34"/>
<path d="M129.649 10.8114H133.072V16.1928C131.558 17.8723 129.471 18.712 126.8 18.712C124.564 18.712 122.683 17.9751 121.17 16.4955C119.656 15.016 118.894 13.1593 118.894 10.9028C118.894 8.65206 119.668 6.7726 121.216 5.27017C122.764 3.76774 124.627 3.01367 126.817 3.01367C129.007 3.01367 130.899 3.72775 132.516 5.16163L130.75 7.70376C130.068 7.10964 129.437 6.70405 128.864 6.47554C128.29 6.25275 127.671 6.13849 127 6.13849C125.71 6.13849 124.615 6.57837 123.733 7.4524C122.85 8.32644 122.402 9.4804 122.402 10.9143C122.402 12.3481 122.827 13.4964 123.675 14.3533C124.524 15.2159 125.539 15.6443 126.714 15.6443C127.889 15.6443 128.869 15.4216 129.655 14.9703V10.8114H129.649Z" fill="#D52B34"/>
<path d="M146.82 18.5407L145.404 15.2617H139.023L137.607 18.5407H133.989L140.571 3.36792H143.862L150.443 18.5407H146.82ZM142.222 7.88092L140.307 12.2854H144.12L142.222 7.88092Z" fill="#D52B34"/>
<path d="M162.689 4.72182C163.756 5.62442 164.289 7.01259 164.289 8.89206C164.289 10.7658 163.739 12.1368 162.644 13.0052C161.549 13.8735 159.874 14.3077 157.621 14.3077H155.598V18.5407H152.198V3.36792H157.581C159.92 3.36792 161.623 3.81922 162.689 4.72182ZM160.195 10.6915C160.603 10.2345 160.803 9.57186 160.803 8.69211C160.803 7.81808 160.539 7.1954 160.006 6.82408C159.479 6.45275 158.653 6.26995 157.535 6.26995H155.598V11.3713H157.885C159.014 11.3771 159.788 11.1486 160.195 10.6915Z" fill="#D52B34"/>
<path d="M179.757 16.4441C178.215 17.9408 176.323 18.6892 174.069 18.6892C171.816 18.6892 169.924 17.9408 168.382 16.4441C166.84 14.9474 166.072 13.0851 166.072 10.8514C166.072 8.6235 166.84 6.76117 168.382 5.25874C169.919 3.76203 171.816 3.01367 174.069 3.01367C176.323 3.01367 178.215 3.76203 179.757 5.25874C181.293 6.75546 182.067 8.61779 182.067 10.8514C182.067 13.0851 181.299 14.9474 179.757 16.4441ZM178.604 10.8686C178.604 9.51467 178.169 8.36072 177.297 7.4067C176.426 6.45269 175.354 5.97283 174.081 5.97283C172.808 5.97283 171.742 6.45269 170.87 7.4067C169.999 8.36072 169.563 9.51467 169.563 10.8686C169.563 12.2225 169.999 13.3707 170.87 14.319C171.742 15.2673 172.814 15.7415 174.081 15.7415C175.348 15.7415 176.42 15.2673 177.297 14.319C178.169 13.3707 178.604 12.2225 178.604 10.8686Z" fill="#D52B34"/>
<path d="M197.294 8.40077C197.294 10.8344 196.326 12.3996 194.399 13.1137L198.258 18.5407H194.072L190.696 13.7021H188.345V18.5407H184.945V3.36792H190.719C193.086 3.36792 194.772 3.76781 195.781 4.56186C196.79 5.35592 197.294 6.63556 197.294 8.40077ZM193.201 10.206C193.62 9.82893 193.832 9.23482 193.832 8.41791C193.832 7.601 193.614 7.04116 193.178 6.73267C192.742 6.42419 191.98 6.27566 190.891 6.27566H188.339V10.7715H190.822C191.986 10.7715 192.777 10.583 193.201 10.206Z" fill="#D52B34"/>
<path d="M211.759 3.36792V6.3842H204.18V9.50902H210.997V12.3939H204.18V15.5416H212V18.535H200.78V3.36792H211.759Z" fill="#D52B34"/>
<path d="M90.3714 23.9333H93.7712V39.1062H90.3714V33.1364H84.3172V39.1062H80.9175V23.9333H84.3172V30.2744H90.3714V23.9333Z" fill="#D52B34"/>
<path d="M110.329 37.0098C108.786 38.5065 106.894 39.2549 104.641 39.2549C102.388 39.2549 100.496 38.5065 98.954 37.0098C97.4118 35.5131 96.6436 33.6508 96.6436 31.4171C96.6436 29.1892 97.4118 27.3268 98.954 25.8244C100.49 24.3277 102.388 23.5793 104.641 23.5793C106.894 23.5793 108.786 24.3277 110.329 25.8244C111.865 27.3211 112.639 29.1835 112.639 31.4171C112.633 33.6508 111.865 35.5131 110.329 37.0098ZM109.17 31.4342C109.17 30.0803 108.735 28.9264 107.863 27.9724C106.992 27.0184 105.92 26.5385 104.647 26.5385C103.374 26.5385 102.308 27.0184 101.436 27.9724C100.565 28.9264 100.129 30.0803 100.129 31.4342C100.129 32.7881 100.565 33.9364 101.436 34.8847C102.308 35.833 103.38 36.3071 104.647 36.3071C105.914 36.3071 106.986 35.833 107.863 34.8847C108.735 33.9364 109.17 32.7881 109.17 31.4342Z" fill="#D52B34"/>
<path d="M122.506 36.107C124.174 36.107 125.539 35.4501 126.599 34.1305L128.778 36.3641C127.046 38.3064 125.011 39.2719 122.666 39.2719C120.321 39.2719 118.389 38.5349 116.87 37.0553C115.351 35.5758 114.594 33.7192 114.594 31.4627C114.594 29.2119 115.368 27.3324 116.916 25.83C118.464 24.3276 120.356 23.5735 122.592 23.5735C125.091 23.5735 127.178 24.5218 128.864 26.4184L126.748 28.8063C125.67 27.4752 124.335 26.8068 122.741 26.8068C121.462 26.8068 120.367 27.2239 119.461 28.0522C118.556 28.8863 118.097 30.0059 118.097 31.417C118.097 32.828 118.527 33.9591 119.381 34.816C120.247 35.6843 121.285 36.107 122.506 36.107Z" fill="#D52B34"/>
<path d="M131.461 23.9333H134.861V30.1659L140.611 23.9333H144.813L138.759 30.64C139.281 31.3655 140.25 32.7137 141.654 34.6903C143.059 36.6669 144.114 38.1407 144.813 39.1062H140.846L136.38 33.1136L134.855 34.8045V39.1004H131.455V23.9333H131.461Z" fill="#D52B34"/>
<path d="M157.908 23.9333V26.9496H150.323V30.0745H157.14V32.9593H150.323V36.107H158.143V39.1004H146.923V23.9333H157.908Z" fill="#D52B34"/>
<path d="M167.735 39.1062H164.335V33.1136L159.06 23.9333H162.741L166.032 29.5775L169.323 23.9333H173.003L167.729 33.1136V39.1062H167.735Z" fill="#D52B34"/>
</g>
<defs>
<clipPath id="clip0_133_14210">
<rect width="212" height="40" fill="white" transform="translate(0 0.5)"/>
</clipPath>
</defs>
</svg>
